<?xml version="1.0" encoding="UTF-8" standalone="no"?>
<!-- Created with Inkscape (http://www.inkscape.org/) -->

<svg
   xmlns:dc="http://purl.org/dc/elements/1.1/"
   xmlns:cc="http://creativecommons.org/ns#"
   xmlns:rdf="http://www.w3.org/1999/02/22-rdf-syntax-ns#"
   xmlns:svg="http://www.w3.org/2000/svg"
   xmlns="http://www.w3.org/2000/svg"
   xmlns:xlink="http://www.w3.org/1999/xlink"
   xmlns:sodipodi="http://sodipodi.sourceforge.net/DTD/sodipodi-0.dtd"
   xmlns:inkscape="http://www.inkscape.org/namespaces/inkscape"
   width="1052.3622"
   height="744.09448"
   id="svg2"
   version="1.1"
   inkscape:version="0.48.3.1 r9886"
   sodipodi:docname="ernie.svg"
   inkscape:export-filename="ernie.png"
   inkscape:export-xdpi="90"
   inkscape:export-ydpi="90">
  <defs
     id="defs4">
    <radialGradient
       gradientUnits="userSpaceOnUse"
       xlink:href="#linearGradient1851"
       r="125.20509"
       id="radialGradient1875"
       fy="552.23834"
       fx="-285.65439"
       cy="598.36652"
       cx="-289.0914" />
    <linearGradient
       id="linearGradient1851">
      <stop
         style="stop-color: rgb(0, 0, 0); stop-opacity: 0.372414;"
         offset="0.0000000"
         id="stop1852" />
      <stop
         style="stop-color: rgb(0, 0, 0); stop-opacity: 0.110345;"
         offset="0.50000000"
         id="stop1854" />
      <stop
         style="stop-color: rgb(173, 173, 173); stop-opacity: 0;"
         offset="1.0000000"
         id="stop1853" />
    </linearGradient>
    <radialGradient
       gradientUnits="userSpaceOnUse"
       xlink:href="#linearGradient1806"
       r="51.667706"
       id="radialGradient1505"
       fy="137.43433"
       fx="27.010122"
       cy="176.56438"
       cx="24.825565" />
    <linearGradient
       id="linearGradient1806">
      <stop
         style="stop-color: rgb(0, 0, 0); stop-opacity: 0.529412;"
         offset="0.0000000"
         id="stop1807" />
      <stop
         style="stop-color: rgb(0, 0, 0); stop-opacity: 0.0734463;"
         offset="0.64777780"
         id="stop3276" />
      <stop
         style="stop-color: rgb(0, 0, 0); stop-opacity: 0;"
         offset="1.0000000"
         id="stop1808" />
    </linearGradient>
    <linearGradient
       gradientUnits="userSpaceOnUse"
       gradientTransform="scale(1.5082338,0.6630272)"
       y2="530.1745"
       y1="359.48569"
       xlink:href="#linearGradient1492"
       x2="68.779373"
       x1="68.963921"
       id="linearGradient1495" />
    <linearGradient
       id="linearGradient1492">
      <stop
         style="stop-color: rgb(198, 198, 198); stop-opacity: 1;"
         offset="0.0000000"
         id="stop1493" />
      <stop
         style="stop-color: rgb(241, 241, 241); stop-opacity: 1;"
         offset="0.34923077"
         id="stop1496" />
      <stop
         style="stop-color: rgb(240, 240, 240); stop-opacity: 1;"
         offset="1.0000000"
         id="stop1494" />
    </linearGradient>
    <linearGradient
       gradientUnits="userSpaceOnUse"
       gradientTransform="scale(1.5082338,0.6630272)"
       y2="518.57758"
       y1="353.53793"
       xlink:href="#linearGradient1806"
       x2="66.950996"
       x1="57.077744"
       id="linearGradient3418" />
    <linearGradient
       gradientUnits="userSpaceOnUse"
       gradientTransform="scale(2.8227189,0.3542684)"
       y2="754.34387"
       y1="796.8042"
       xlink:href="#linearGradient2541"
       x2="28.547579"
       x1="28.147951"
       id="linearGradient7975" />
    <linearGradient
       id="linearGradient2541">
      <stop
         style="stop-color: rgb(0, 0, 0); stop-opacity: 0;"
         offset="0.0000000"
         id="stop2542" />
      <stop
         style="stop-color: rgb(0, 0, 0); stop-opacity: 1;"
         offset="1.0000000"
         id="stop2543" />
    </linearGradient>
    <linearGradient
       gradientUnits="userSpaceOnUse"
       gradientTransform="scale(2.3125735,0.4324187)"
       y2="506.45761"
       y1="558.52252"
       xlink:href="#linearGradient2529"
       x2="30.167488"
       x1="30.167488"
       id="linearGradient7987" />
    <linearGradient
       id="linearGradient2529">
      <stop
         style="stop-color: rgb(255, 255, 255); stop-opacity: 0;"
         offset="0.0000000"
         id="stop2530" />
      <stop
         style="stop-color: rgb(255, 255, 255); stop-opacity: 1;"
         offset="1.0000000"
         id="stop2532" />
    </linearGradient>
    <linearGradient
       gradientUnits="userSpaceOnUse"
       gradientTransform="scale(1.260685,0.7932196)"
       y2="312.35284"
       y1="179.99638"
       xlink:href="#linearGradient1492"
       x2="61.895321"
       x1="45.910301"
       id="linearGradient7980" />
    <linearGradient
       gradientUnits="userSpaceOnUse"
       gradientTransform="scale(1.9505475,0.5126766)"
       y2="527.86145"
       y1="556.82404"
       xlink:href="#linearGradient1568"
       x2="43.648369"
       x1="43.817413"
       id="linearGradient7992" />
    <linearGradient
       id="linearGradient1568">
      <stop
         style="stop-color: rgb(222, 222, 222); stop-opacity: 1;"
         offset="0.0000000"
         id="stop1569" />
      <stop
         style="stop-color: rgb(171, 171, 171); stop-opacity: 1;"
         offset="0.42928788"
         id="stop1574" />
      <stop
         style="stop-color: rgb(227, 227, 227); stop-opacity: 1;"
         offset="0.58570588"
         id="stop3320" />
      <stop
         style="stop-color: rgb(255, 255, 255); stop-opacity: 1;"
         offset="1.0000000"
         id="stop1570" />
    </linearGradient>
    <linearGradient
       gradientUnits="userSpaceOnUse"
       gradientTransform="scale(2.8227189,0.3542684)"
       y2="772.75574"
       y1="788.4397"
       xlink:href="#linearGradient2541"
       x2="29.820843"
       x1="29.820843"
       id="linearGradient7984" />
    <linearGradient
       gradientUnits="userSpaceOnUse"
       gradientTransform="scale(1.5701124,0.6368971)"
       y2="302.03851"
       y1="354.08057"
       xlink:href="#linearGradient2529"
       x2="51.166565"
       x1="52.245804"
       id="linearGradient7993" />
    <inkscape:perspective
       id="perspective54"
       inkscape:persp3d-origin="160 : 106.66667 : 1"
       inkscape:vp_z="320 : 160 : 1"
       inkscape:vp_y="0 : 1000 : 0"
       inkscape:vp_x="0 : 160 : 1"
       sodipodi:type="inkscape:persp3d" />
    <linearGradient
       id="linearGradient2541-4">
      <stop
         style="stop-color:#000000;stop-opacity:0;"
         offset="0"
         id="stop2542-8" />
      <stop
         id="stop4324"
         offset="0.00048828"
         style="stop-color:#000000;stop-opacity:0;" />
      <stop
         id="stop4322"
         offset="0.00097656"
         style="stop-color:#000000;stop-opacity:0;" />
      <stop
         id="stop4320"
         offset="0.00195313"
         style="stop-color:#000000;stop-opacity:0;" />
      <stop
         id="stop4318"
         offset="0.00390625"
         style="stop-color:#000000;stop-opacity:0;" />
      <stop
         id="stop4316"
         offset="0.0078125"
         style="stop-color:#000000;stop-opacity:0.00392157;" />
      <stop
         id="stop4314"
         offset="0.015625"
         style="stop-color:#000000;stop-opacity:0.01176471;" />
      <stop
         id="stop4312"
         offset="0.03125"
         style="stop-color:#000000;stop-opacity:0.02745098;" />
      <stop
         id="stop4310"
         offset="0.0625"
         style="stop-color:#000000;stop-opacity:0.05882353;" />
      <stop
         id="stop4308"
         offset="0.125"
         style="stop-color:#000000;stop-opacity:0.12156863;" />
      <stop
         id="stop4304"
         offset="0.25"
         style="stop-color:#000000;stop-opacity:0.24705882;" />
      <stop
         id="stop4302"
         offset="0.5"
         style="stop-color:#000000;stop-opacity:0.49803922;" />
      <stop
         style="stop-color:#000000;stop-opacity:0.74901961;"
         offset="0.75"
         id="stop4306" />
      <stop
         style="stop-color:#000000;stop-opacity:1;"
         offset="1"
         id="stop2543-8" />
    </linearGradient>
    <linearGradient
       id="linearGradient1568-4">
      <stop
         style="stop-color: rgb(222, 222, 222); stop-opacity: 1;"
         offset="0.0000000"
         id="stop1569-5" />
      <stop
         style="stop-color: rgb(171, 171, 171); stop-opacity: 1;"
         offset="0.42928788"
         id="stop1574-5" />
      <stop
         style="stop-color: rgb(227, 227, 227); stop-opacity: 1;"
         offset="0.58570588"
         id="stop3320-1" />
      <stop
         style="stop-color: rgb(255, 255, 255); stop-opacity: 1;"
         offset="1.0000000"
         id="stop1570-7" />
    </linearGradient>
    <linearGradient
       inkscape:collect="always"
       xlink:href="#linearGradient2541-4"
       id="linearGradient4200-1"
       gradientUnits="userSpaceOnUse"
       gradientTransform="matrix(6.2605799,0,0,0.78574088,404.06954,-365.51772)"
       x1="28.147951"
       y1="796.8042"
       x2="28.547579"
       y2="754.34387" />
    <linearGradient
       id="linearGradient4247">
      <stop
         style="stop-color: rgb(0, 0, 0); stop-opacity: 0;"
         offset="0.0000000"
         id="stop4249" />
      <stop
         style="stop-color: rgb(0, 0, 0); stop-opacity: 1;"
         offset="1.0000000"
         id="stop4251" />
    </linearGradient>
    <linearGradient
       y2="452.2695"
       y1="452.2695"
       x2="-238.0237"
       x1="-239.77541"
       id="XMLID_6_"
       gradientUnits="userSpaceOnUse"
       gradientTransform="matrix(0,140.5657,140.5657,0,-63505.359,33656.836)">
      <stop
         style="stop-color:#FFFFFF"
         offset="0"
         id="stop12" />
      <stop
         style="stop-color:#000000"
         offset="1"
         id="stop14" />
    </linearGradient>
    <linearGradient
       y2="469.2998"
       y1="469.2998"
       x2="-234.6259"
       x1="-236.3701"
       id="XMLID_7_"
       gradientUnits="userSpaceOnUse"
       gradientTransform="matrix(0,-254.5265,-254.5265,0,119519.89,-59944.609)">
      <stop
         style="stop-color:#FFFFFF"
         offset="0"
         id="stop23" />
      <stop
         style="stop-color:#000000"
         offset="1"
         id="stop25" />
    </linearGradient>
    <radialGradient
       r="57.481201"
       id="XMLID_8_"
       gradientUnits="userSpaceOnUse"
       cy="49.074699"
       cx="50.067402">
      <stop
         style="stop-color:#F3F3F3"
         offset="0"
         id="stop32" />
      <stop
         style="stop-color:#C3C3C3"
         offset="0.3839"
         id="stop34" />
      <stop
         style="stop-color:#707070"
         offset="1"
         id="stop36" />
    </radialGradient>
    <linearGradient
       y2="60.769001"
       y1="60.769001"
       x2="108.0454"
       x1="32.117699"
       id="XMLID_9_"
       gradientUnits="userSpaceOnUse">
      <stop
         style="stop-color:#F3F3F3"
         offset="0"
         id="stop41" />
      <stop
         style="stop-color:#F0F0F0"
         offset="0.2357"
         id="stop43" />
      <stop
         style="stop-color:#E6E6E6"
         offset="0.4068"
         id="stop45" />
      <stop
         style="stop-color:#D7D7D7"
         offset="0.5575"
         id="stop47" />
      <stop
         style="stop-color:#C0C0C0"
         offset="0.6963"
         id="stop49" />
      <stop
         style="stop-color:#A3A3A3"
         offset="0.8272"
         id="stop51" />
      <stop
         style="stop-color:#808080"
         offset="0.9503"
         id="stop53" />
      <stop
         style="stop-color:#707070"
         offset="1"
         id="stop55" />
    </linearGradient>
    <linearGradient
       y2="497.1152"
       y1="497.1152"
       x2="-229.8219"
       x1="-231.55321"
       id="XMLID_10_"
       gradientUnits="userSpaceOnUse"
       gradientTransform="matrix(0,-45.5125,-45.5125,0,22694.941,-10380.726)">
      <stop
         style="stop-color:#FFFFFF"
         offset="0"
         id="stop80" />
      <stop
         style="stop-color:#000000"
         offset="1"
         id="stop82" />
    </linearGradient>
    <linearGradient
       inkscape:collect="always"
       xlink:href="#XMLID_10_-4"
       id="linearGradient4592-1"
       gradientUnits="userSpaceOnUse"
       gradientTransform="matrix(0,-108.66151,-86.525625,0,43579.516,-24447.254)"
       x1="-231.55321"
       y1="497.1152"
       x2="-229.8219"
       y2="497.1152" />
    <linearGradient
       y2="497.1152"
       y1="497.1152"
       x2="-229.8219"
       x1="-231.55321"
       id="XMLID_10_-4"
       gradientUnits="userSpaceOnUse"
       gradientTransform="matrix(0,-45.5125,-45.5125,0,22694.941,-10380.726)">
      <stop
         style="stop-color:#FFFFFF"
         offset="0"
         id="stop80-2" />
      <stop
         style="stop-color:#000000"
         offset="1"
         id="stop82-3" />
    </linearGradient>
    <linearGradient
       id="linearGradient3831-5-8">
      <stop
         id="stop3833-2-6"
         offset="0"
         style="stop-color:#d3d7cf;stop-opacity:1;" />
      <stop
         id="stop3835-7-4"
         offset="1"
         style="stop-color:#888a85;stop-opacity:1;" />
    </linearGradient>
    <linearGradient
       id="linearGradient3817-28-5">
      <stop
         style="stop-color:#eeeeec;stop-opacity:1;"
         offset="0"
         id="stop3819-2-2" />
      <stop
         style="stop-color:#888a85;stop-opacity:1;"
         offset="1"
         id="stop3821-0-1" />
    </linearGradient>
    <linearGradient
       id="linearGradient3787-2-0">
      <stop
         id="stop3789-7-0"
         offset="0"
         style="stop-color:#d3d7cf;stop-opacity:1;" />
      <stop
         style="stop-color:#888a85;stop-opacity:1;"
         offset="0.44983968"
         id="stop3795-80-0" />
      <stop
         id="stop3805-20-7"
         offset="0.54768509"
         style="stop-color:#888a85;stop-opacity:1;" />
      <stop
         id="stop3791-8-2"
         offset="1"
         style="stop-color:#d3d7cf;stop-opacity:1;" />
    </linearGradient>
    <linearGradient
       id="linearGradient4305">
      <stop
         style="stop-color:#888a85;stop-opacity:1;"
         offset="0"
         id="stop4307" />
      <stop
         id="stop4317"
         offset="0.36218816"
         style="stop-color:#414544;stop-opacity:1;" />
      <stop
         id="stop4313"
         offset="0.52191252"
         style="stop-color:#2e3436;stop-opacity:1;" />
      <stop
         style="stop-color:#414544;stop-opacity:1;"
         offset="0.68181127"
         id="stop4315" />
      <stop
         style="stop-color:#888a85;stop-opacity:1;"
         offset="1"
         id="stop4309" />
    </linearGradient>
    <linearGradient
       id="linearGradient3817-28">
      <stop
         style="stop-color:#eeeeec;stop-opacity:1;"
         offset="0"
         id="stop3819-2" />
      <stop
         style="stop-color:#888a85;stop-opacity:1;"
         offset="1"
         id="stop3821-0" />
    </linearGradient>
    <linearGradient
       id="linearGradient3787-2">
      <stop
         id="stop3789-7"
         offset="0"
         style="stop-color:#d3d7cf;stop-opacity:1;" />
      <stop
         style="stop-color:#888a85;stop-opacity:1;"
         offset="0.44983968"
         id="stop3795-80" />
      <stop
         id="stop3805-20"
         offset="0.54768509"
         style="stop-color:#888a85;stop-opacity:1;" />
      <stop
         id="stop3791-8"
         offset="1"
         style="stop-color:#d3d7cf;stop-opacity:1;" />
    </linearGradient>
    <linearGradient
       y2="92.125"
       x2="149.47694"
       y1="92.125"
       x1="90.753654"
       gradientUnits="userSpaceOnUse"
       id="linearGradient4651"
       xlink:href="#linearGradient3787"
       inkscape:collect="always" />
    <linearGradient
       y2="77.952736"
       x2="219.3279"
       y1="81.49604"
       x1="178.92294"
       gradientTransform="matrix(1,0,0,11.999999,-81.496065,-882.28315)"
       gradientUnits="userSpaceOnUse"
       id="linearGradient4648"
       xlink:href="#linearGradient3817"
       inkscape:collect="always" />
    <linearGradient
       y2="79.72438"
       x2="240.94489"
       y1="78.836769"
       x1="162.99211"
       gradientTransform="matrix(1.0453544,0,0,13.713174,-90.782488,-1019.879)"
       gradientUnits="userSpaceOnUse"
       id="linearGradient4645"
       xlink:href="#linearGradient3831"
       inkscape:collect="always" />
    <linearGradient
       y2="56.034847"
       x2="120.46875"
       y1="134.64565"
       x1="120.47244"
       gradientUnits="userSpaceOnUse"
       id="linearGradient4636"
       xlink:href="#linearGradient3728"
       inkscape:collect="always" />
    <linearGradient
       id="linearGradient3728"
       inkscape:collect="always">
      <stop
         id="stop3730"
         offset="0"
         style="stop-color:#555753;stop-opacity:1;" />
      <stop
         id="stop3732"
         offset="1"
         style="stop-color:#555753;stop-opacity:0;" />
    </linearGradient>
    <linearGradient
       id="linearGradient3787">
      <stop
         id="stop3789"
         offset="0"
         style="stop-color:#d3d7cf;stop-opacity:1;" />
      <stop
         style="stop-color:#888a85;stop-opacity:1;"
         offset="0.44983968"
         id="stop3795" />
      <stop
         id="stop3805"
         offset="0.54768509"
         style="stop-color:#888a85;stop-opacity:1;" />
      <stop
         id="stop3791"
         offset="1"
         style="stop-color:#d3d7cf;stop-opacity:1;" />
    </linearGradient>
    <linearGradient
       id="linearGradient3817">
      <stop
         style="stop-color:#eeeeec;stop-opacity:1;"
         offset="0"
         id="stop3819" />
      <stop
         style="stop-color:#888a85;stop-opacity:1;"
         offset="1"
         id="stop3821" />
    </linearGradient>
    <linearGradient
       id="linearGradient3831">
      <stop
         id="stop3833"
         offset="0"
         style="stop-color:#d3d7cf;stop-opacity:1;" />
      <stop
         id="stop3835"
         offset="1"
         style="stop-color:#888a85;stop-opacity:1;" />
    </linearGradient>
    <linearGradient
       inkscape:collect="always"
       xlink:href="#XMLID_10_-4"
       id="linearGradient3149"
       gradientUnits="userSpaceOnUse"
       gradientTransform="matrix(0,-108.66151,-86.525625,0,43579.516,-24447.254)"
       x1="-231.55321"
       y1="497.1152"
       x2="-229.8219"
       y2="497.1152" />
  </defs>
  <sodipodi:namedview
     id="base"
     pagecolor="#ffffff"
     bordercolor="#666666"
     borderopacity="1.0"
     inkscape:pageopacity="0.0"
     inkscape:pageshadow="2"
     inkscape:zoom="0.98994949"
     inkscape:cx="516.00445"
     inkscape:cy="360.6501"
     inkscape:document-units="px"
     inkscape:current-layer="layer1"
     showgrid="false"
     inkscape:window-width="1920"
     inkscape:window-height="1005"
     inkscape:window-x="0"
     inkscape:window-y="25"
     inkscape:window-maximized="1" />
  <metadata
     id="metadata7">
    <rdf:RDF>
      <cc:Work
         rdf:about="">
        <dc:format>image/svg+xml</dc:format>
        <dc:type
           rdf:resource="http://purl.org/dc/dcmitype/StillImage" />
        <dc:title></dc:title>
      </cc:Work>
    </rdf:RDF>
  </metadata>
  <g
     inkscape:label="Layer 1"
     inkscape:groupmode="layer"
     id="layer1"
     transform="translate(0,-308.2677)">
    <text
       xml:space="preserve"
       style="font-size:263.98428345px;font-style:normal;font-variant:normal;font-weight:bold;font-stretch:normal;line-height:125%;letter-spacing:0px;word-spacing:0px;fill:#094987;fill-opacity:1;stroke:none;font-family:Verdana;-inkscape-font-specification:Verdana Bold"
       x="142.70248"
       y="873.83362"
       id="text2985"
       sodipodi:linespacing="125%"
       transform="scale(0.98743168,1.0127283)"><tspan
         sodipodi:role="line"
         id="tspan2987"
         x="142.70248"
         y="873.83362"
         style="font-style:normal;font-variant:normal;font-weight:bold;font-stretch:normal;fill:#094987;font-family:Sans;-inkscape-font-specification:Sans Bold">Ernie</tspan></text>
    <g
       id="g3130"
       transform="translate(-45.879307,0)">
      <g
         transform="matrix(3.9476489,0,0,5.2112853,232.16008,-248.63817)"
         id="g4219">
        <path
           style="color:#000000;fill:#f2c802;fill-opacity:1;fill-rule:evenodd;stroke:none;stroke-width:1;marker:none;visibility:visible;display:inline;overflow:visible;enable-background:accumulate"
           d="m 78.184614,111.91111 c 5.57954,0.10675 10.77278,2.72229 13.37015,7.28442 3.38963,5.95376 1.23821,13.26383 -4.71798,17.58595 -0.90791,0.87528 -1.28459,1.93948 -0.8683,2.82158 0.42204,0.89427 1.54877,1.38429 2.98697,1.29737 1.4382,-0.0869 6.04611,-1.19836 8.30088,-1.53483 2.42944,-0.36253 3.335686,-0.82559 6.961696,-2.37459 2.88817,-1.2338 3.66395,-4.19091 4.79361,-5.35681 0.80619,-1.12032 2.05437,-1.75209 3.35022,-1.52951 1.00202,0.1721 1.62595,0.48993 2.10781,1.2638 0,0 2.70564,4.74876 3.1403,5.65745 0.43468,0.90868 2.63225,4.50365 3.08896,8.09457 3.26817,25.69624 -36.148436,28.40474 -55.953636,24.54212 -7.57364,-1.4771 -13.43162,-7.2657 -13.43162,-14.54788 0,-5.45973 3.259,-10.21914 8.10663,-12.77391 1.51555,-0.93852 2.83417,-2.14817 3.85736,-3.62475 0.56444,-0.81458 1.01057,-1.67019 1.34468,-2.5492 -0.97958,-0.90887 -1.82613,-1.95002 -2.49728,-3.12887 -3.89983,-6.84988 -0.47417,-15.50237 7.65326,-19.325 2.5398,-1.19457 5.23972,-1.77584 7.86841,-1.8019 0.18072,-0.002 0.35789,-0.003 0.53788,0 z"
           id="path3061"
           inkscape:connector-curvature="0"
           sodipodi:nodetypes="cscscsscscsssscscssssc" />
        <path
           sodipodi:type="arc"
           style="color:#000000;fill:#393228;fill-opacity:1;fill-rule:evenodd;stroke:none;stroke-width:1;marker:none;visibility:visible;display:inline;overflow:visible;enable-background:accumulate"
           id="path3945"
           sodipodi:cx="657.60931"
           sodipodi:cy="56.887096"
           sodipodi:rx="19.79899"
           sodipodi:ry="19.79899"
           d="m 677.4083,56.887096 c 0,10.934681 -8.86431,19.798991 -19.79899,19.798991 -10.93468,0 -19.79899,-8.86431 -19.79899,-19.798991 0,-10.93468 8.86431,-19.79899 19.79899,-19.79899 10.93468,0 19.79899,8.86431 19.79899,19.79899 z"
           transform="matrix(-0.2028619,0,0,0.18438423,204.44785,114.46542)" />
        <path
           sodipodi:nodetypes="ssssccssss"
           inkscape:connector-curvature="0"
           id="path4013"
           d="m 65.083754,129.80016 c -0.29049,-0.67603 -1.8143,-1.63334 -3.13351,-1.32724 -0.30822,0.0715 -1.18113,-1.40341 -1.4785,-1.37105 -0.79506,0.0865 -1.35602,0.77111 -1.70044,1.07703 -0.95815,0.85103 -4.45322,0.49024 -5.3473,0.68347 -1.29288,1.65109 3.01373,4.5176 5.16296,3.3059 1.14104,-0.33247 0.42174,0.17246 0.18719,0.39957 -1.43965,1.39394 -2.94554,2.28271 -2.29317,2.87566 1.31685,1.19691 5.37818,0.26454 6.90745,-1.12544 2.40262,-2.18377 2.02329,-3.75472 1.69532,-4.5179 z"
           style="color:#000000;fill:#b94519;fill-opacity:1;fill-rule:evenodd;stroke:none;stroke-width:1;marker:none;visibility:visible;display:inline;overflow:visible;enable-background:accumulate" />
        <path
           style="fill:none;stroke:#f2c802;stroke-width:3.51633215;stroke-linecap:round;stroke-linejoin:round;stroke-miterlimit:4;stroke-opacity:1;stroke-dasharray:none"
           d="m 76.623564,113.6069 c -2.49863,0 -5.03015,-0.162 -6.93578,-1.89406"
           id="path4020"
           inkscape:connector-curvature="0"
           sodipodi:nodetypes="cc" />
        <path
           sodipodi:type="arc"
           style="color:#000000;fill:#ffffff;fill-opacity:1;fill-rule:evenodd;stroke:none;stroke-width:5;marker:none;visibility:visible;display:inline;overflow:visible;enable-background:accumulate"
           id="path4049"
           sodipodi:cx="1696.6133"
           sodipodi:cy="59.030357"
           sodipodi:rx="2.8689296"
           sodipodi:ry="2.8689296"
           d="m 1699.4822,59.030357 c 0,1.584466 -1.2845,2.86893 -2.8689,2.86893 -1.5845,0 -2.8689,-1.284464 -2.8689,-2.86893 0,-1.584466 1.2844,-2.868929 2.8689,-2.868929 1.5844,0 2.8689,1.284463 2.8689,2.868929 z"
           transform="matrix(0.67619148,0,0,0.61460058,-1075.8361,87.713307)" />
      </g>
      <path
         inkscape:connector-curvature="0"
         d="m 632.11156,538.2688 c -33.87067,0 -67.74139,0 -101.61399,0 -11.51712,0 -27.76616,-3.5646 -38.91635,1.73814 -18.5209,8.80511 -12.0247,48.78632 -12.0247,68.12277 0,8.49237 16.41065,4.16383 21.94677,4.16383 20.47527,0 40.95055,0 61.4239,0 6.70154,0 88.8669,1.20332 88.8669,-1.11253 0,-22.13472 7.88782,-72.91221 -19.68253,-72.91221"
         id="path59-2"
         style="fill:#d8d4d4" />
      <path
         inkscape:connector-curvature="0"
         d="m 628.20097,542.88146 c -33.94299,0 -67.88593,0 -101.827,0 -12.33458,0 -33.73382,-4.64368 -40.29276,12.5225 -2.69772,7.0718 -3.61406,45.55605 0.6559,45.55605 36.55323,0 73.10454,0 109.65778,0 15.54368,0 31.09311,0 46.6368,0 4.21488,0 3.69395,0.45837 3.69395,-5.25971 0,-10.37127 1.26993,-22.0701 0,-32.31246 0,-12.28617 -9.40873,-20.50638 -18.52467,-20.50638"
         id="path61-2"
         style="fill:#383838" />
      <path
         inkscape:connector-curvature="0"
         d="m 651.38534,627.7169 c 0,20.15768 -93.81936,11.98762 -103.76421,11.98762 -13.39165,0 -26.78707,-0.13859 -40.18059,0 -4.75286,0 -29.44867,3.43562 -26.56464,-10.10155 2.26425,-10.63401 4.52661,-21.26795 6.79087,-31.89949 5.08745,-23.88705 18.43156,-22.54769 34.36879,-22.54769 21.16353,0 42.3251,0 63.48859,0 13.38591,0 26.78707,-0.27209 40.17296,0.0203 19.50571,0.42761 21.42206,33.9051 25.68823,52.53953"
         id="path63-1"
         style="fill:#494848" />
      <path
         inkscape:connector-curvature="0"
         d="m 497.11734,626.46816 c -1.20151,6.1407 -9.97716,7.42753 -8.43345,-0.48964 0.83079,-4.25936 1.6635,-8.51382 2.49428,-12.77315 1.39924,-7.17925 1.80989,-19.69693 5.05516,-25.90934 1.19959,-6.14542 9.97718,-7.43226 8.43343,0.48967 -0.83078,4.25455 -1.66349,8.51389 -2.49428,12.77319 -1.68632,8.63802 -3.37072,17.27125 -5.05514,25.90927"
         id="path65-6"
         style="fill:#5e5d5d" />
      <path
         inkscape:connector-curvature="0"
         d="m 506.99186,626.63767 c -1.154,5.89717 -7.26995,7.20785 -5.77756,-0.44401 0.83081,-4.25933 1.66349,-8.51623 2.4943,-12.77319 1.35552,-6.94044 1.76613,-20.03362 5.05512,-25.91166 1.154,-5.88756 7.26996,-7.20311 5.77756,0.4466 -0.83078,4.25693 -1.6635,8.5139 -2.49428,12.77319 -1.68442,8.63808 -3.37073,17.2737 -5.05514,25.90927"
         id="path67-8"
         style="fill:#383838" />
      <path
         inkscape:connector-curvature="0"
         d="m 634.92522,626.46816 c 1.20346,6.1407 9.97722,7.42753 8.43345,-0.48964 -0.83262,-4.25936 -1.66347,-8.51382 -2.49235,-12.77315 -1.39924,-7.17925 -1.8118,-19.69693 -5.05705,-25.90934 -1.19963,-6.14542 -9.97718,-7.43226 -8.43344,0.48967 0.83268,4.25455 1.66347,8.51389 2.49618,12.77319 1.68249,8.63802 3.37072,17.27125 5.05321,25.90927"
         id="path69-5"
         style="fill:#5e5d5d" />
      <path
         inkscape:connector-curvature="0"
         d="m 625.0526,626.63767 c 1.15403,5.89717 7.26994,7.20785 5.77759,-0.44401 -0.8327,-4.25933 -1.66352,-8.51623 -2.4962,-12.77319 -1.35551,-6.94044 -1.76427,-20.03362 -5.05322,-25.91166 -1.15399,-5.88756 -7.27001,-7.20311 -5.77756,0.4466 0.82889,4.25693 1.66346,8.5139 2.4924,12.77319 1.6844,8.63808 3.37073,17.2737 5.05699,25.90927"
         id="path71-7"
         style="fill:#383838" />
      <path
         inkscape:connector-curvature="0"
         d="m 518.55461,563.12513 c 30.5646,0 61.13115,0 91.69766,0 10.46767,0 17.89728,51.72062 19.7281,61.18707 1.46009,7.54219 4.0209,16.01307 3.3346,23.85837 -0.86501,9.78887 -7.83081,8.08895 -13.90308,8.08895 -35.2528,0 -70.50179,0 -105.75083,0 -4.71863,0 -11.91064,2.23948 -14.38021,-4.20683 -2.53614,-6.63011 0.87452,-16.69103 2.1521,-23.17077 2.5437,-12.92593 5.20911,-25.82814 8.24712,-38.58456 1.53802,-6.46776 3.64831,-23.34024 8.87454,-27.17223"
         id="path73-6"
         style="fill:#f4f4f4" />
      <path
         inkscape:connector-curvature="0"
         d="m 627.61725,612.65404 c -2.8859,-13.6112 -6.73955,-49.52891 -21.19766,-49.52891 -14.3061,0 -28.6141,0 -42.92014,0 -13.39545,0 -26.79276,0 -40.19202,0 -13.36881,0 -15.93536,36.86078 -18.58364,49.52891 40.96387,0 81.93153,0 122.89346,0"
         id="path75-1"
         style="fill:#e5e5e5" />
      <path
         inkscape:connector-curvature="0"
         d="m 611.17243,561.28438 c -30.49238,0 -60.98476,0 -91.47717,0 -9.76804,0 -15.65967,46.31529 -17.49618,55.26848 -1.90114,9.26111 -8.12735,27.08149 -4.3479,36.43814 2.90495,7.18403 11.66159,5.09259 17.21293,5.09259 34.44486,0.003 68.88593,0.0168 103.33068,0.0203 4.6369,0 11.67496,1.55426 14.72246,-3.60275 4.33655,-7.33922 0.64257,-18.96159 -0.81367,-26.72819 -3.08175,-16.46666 -7.3783,-58.46052 -21.13115,-66.48974 m -0.68252,3.68874 c 6.26042,6.39851 8.84407,20.32246 11.1882,29.4475 3.44866,13.47754 6.249,27.22955 8.70719,41.04133 1.96391,11.00396 2.62545,18.95203 -8.10265,18.95203 -3.64641,0 -7.29277,0 -10.94295,0 -31.74331,0 -63.48663,0 -95.22997,0 -3.31368,0 -6.79468,0.26466 -10.09507,-0.19131 -12.61973,-1.74773 -1.79086,-31.26681 0.0609,-40.09823 3.11788,-14.88377 6.03614,-30.436 11.03041,-44.54857 2.13119,-6.02129 4.23195,-4.60308 9.06655,-4.60308 28.10453,0 56.21289,0 84.31746,0"
         id="path84-9"
         style="fill:url(#linearGradient3149)" />
      <path
         inkscape:connector-curvature="0"
         d="m 630.06208,644.38885 c 0,8.20821 -58.03605,3.92498 -63.56643,3.92498 -5.53044,0 -63.56463,4.28323 -63.56463,-3.92498 0.002,-7.09807 127.13106,-7.09807 127.13106,0"
         id="path86-2"
         style="fill:#ffffff" />
    </g>
    <text
       xml:space="preserve"
       style="font-size:72.86389923px;font-style:normal;font-variant:normal;font-weight:normal;font-stretch:normal;line-height:125%;letter-spacing:0px;word-spacing:0px;fill:#000000;fill-opacity:1;stroke:none;font-family:Verdana;-inkscape-font-specification:Verdana"
       x="161.13031"
       y="943.49725"
       id="text5140"
       sodipodi:linespacing="125%"
       transform="scale(0.97084212,1.0300336)"><tspan
         sodipodi:role="line"
         id="tspan5142"
         x="161.13031"
         y="943.49725"
         style="font-size:86.42056274px">Report Generator</tspan></text>
  </g>
</svg>
